<svg width="60" height="60" viewBox="0 0 60 60" fill="none" xmlns="http://www.w3.org/2000/svg">
<path d="M4.0788 44.2167V5.46797C4.08041 4.92758 4.29579 4.40978 4.67791 4.02767C5.06002 3.64556 5.57782 3.43017 6.11821 3.42856H53.0246C53.565 3.43017 54.0828 3.64556 54.4649 4.02767C54.847 4.40978 55.0624 4.92758 55.064 5.46797V44.2167H4.0788Z" fill="#205B75"/>
<path d="M59.1429 52.3744V55.4335C59.1429 55.7039 59.0354 55.9633 58.8442 56.1545C58.653 56.3457 58.3936 56.4532 58.1232 56.4532H1.0197C0.749262 56.4532 0.489896 56.3457 0.298664 56.1545C0.107433 55.9633 0 55.7039 0 55.4335V52.3744L4.07882 42.1773H55.064L59.1429 52.3744Z" fill="#CADBEA"/>
<path d="M59.1429 52.3744V55.4335C59.1429 55.7039 59.0354 55.9633 58.8442 56.1545C58.653 56.3457 58.3936 56.4532 58.1232 56.4532H1.0197C0.749262 56.4532 0.489896 56.3457 0.298664 56.1545C0.107433 55.9633 0 55.7039 0 55.4335V52.3744H59.1429Z" fill="#ABBBCC"/>
<path d="M45.1423 7.50739H49.9655C50.236 7.50739 50.4953 7.61482 50.6866 7.80605C50.8778 7.99728 50.9852 8.25665 50.9852 8.52709V37.0788C50.9852 37.3493 50.8778 37.6086 50.6866 37.7999C50.4953 37.9911 50.236 38.0985 49.9655 38.0985H9.17736C8.90692 38.0985 8.64755 37.9911 8.45632 37.7999C8.26509 37.6086 8.15765 37.3493 8.15765 37.0788V8.52709C8.15765 8.25665 8.26509 7.99728 8.45632 7.80605C8.64755 7.61482 8.90692 7.50739 9.17736 7.50739H45.1423Z" fill="#114559"/>
<path d="M18.3547 52.3744L20.1381 47.9172C20.2137 47.728 20.3443 47.5658 20.5129 47.4515C20.6816 47.3371 20.8807 47.276 21.0844 47.2758H38.0584C38.2622 47.276 38.4612 47.3371 38.6299 47.4515C38.7986 47.5658 38.9291 47.728 39.0047 47.9172L40.7882 52.3744H18.3547Z" fill="#E1EAF4"/>
<path d="M14.2759 17.7044C14.4775 17.7044 14.6746 17.6445 14.8423 17.5325C15.0099 17.4204 15.1406 17.2612 15.2178 17.0749C15.2949 16.8886 15.3151 16.6836 15.2758 16.4858C15.2365 16.288 15.1394 16.1064 14.9968 15.9638L13.6783 14.6453L14.9968 13.3268C15.1826 13.1345 15.2853 12.8769 15.283 12.6096C15.2807 12.3422 15.1734 12.0864 14.9844 11.8974C14.7953 11.7083 14.5396 11.6011 14.2722 11.5987C14.0048 11.5964 13.7473 11.6992 13.5549 11.885L11.5155 13.9244C11.3244 14.1156 11.217 14.3749 11.217 14.6453C11.217 14.9157 11.3244 15.175 11.5155 15.3662L13.5549 17.4056C13.7461 17.5969 14.0055 17.7043 14.2759 17.7044ZM23.752 17.4056C23.9432 17.5968 24.2025 17.7042 24.4729 17.7042C24.7433 17.7042 25.0026 17.5968 25.1939 17.4056L27.2333 15.3662C27.4244 15.175 27.5318 14.9157 27.5318 14.6453C27.5318 14.3749 27.4244 14.1156 27.2333 13.9244L25.1939 11.885C25.0015 11.6992 24.744 11.5964 24.4766 11.5987C24.2092 11.6011 23.9535 11.7083 23.7644 11.8974C23.5753 12.0864 23.4681 12.3422 23.4658 12.6096C23.4635 12.8769 23.5662 13.1345 23.752 13.3268L25.0705 14.6453L23.752 15.9638C23.5608 16.155 23.4534 16.4143 23.4534 16.6847C23.4534 16.9551 23.5608 17.2144 23.752 17.4056ZM17.8989 17.6024C18.0187 17.6623 18.1492 17.6981 18.2828 17.7075C18.4165 17.717 18.5507 17.7 18.6778 17.6576C18.8049 17.6152 18.9223 17.5481 19.0235 17.4603C19.1247 17.3724 19.2075 17.2655 19.2673 17.1456L21.3067 13.0668C21.3666 12.9469 21.4023 12.8165 21.4117 12.6828C21.4211 12.5492 21.4042 12.415 21.3617 12.288C21.3193 12.1609 21.2523 12.0434 21.1645 11.9422C21.0766 11.8411 20.9698 11.7582 20.8499 11.6983C20.7301 11.6385 20.5996 11.6028 20.466 11.5934C20.3323 11.5839 20.1981 11.6009 20.0711 11.6433C19.944 11.6858 19.8265 11.7528 19.7254 11.8406C19.6242 11.9284 19.5413 12.0353 19.4815 12.1552L17.4421 16.234C17.3821 16.3538 17.3464 16.4843 17.337 16.6179C17.3275 16.7516 17.3445 16.8858 17.3869 17.0129C17.4293 17.14 17.4964 17.2574 17.5842 17.3586C17.6721 17.4598 17.779 17.5426 17.8989 17.6024Z" fill="white"/>
<path d="M17.335 20.7635C17.335 20.4931 17.2275 20.2337 17.0363 20.0425C16.8451 19.8513 16.5857 19.7438 16.3153 19.7438H13.2562C12.9857 19.7438 12.7263 19.8513 12.5351 20.0425C12.3439 20.2337 12.2365 20.4931 12.2365 20.7635C12.2365 21.034 12.3439 21.2933 12.5351 21.4846C12.7263 21.6758 12.9857 21.7832 13.2562 21.7832H16.3153C16.5857 21.7832 16.8451 21.6758 17.0363 21.4846C17.2275 21.2933 17.335 21.034 17.335 20.7635Z" fill="#E5BB33"/>
<path d="M19.3744 20.7635C19.3744 21.034 19.4818 21.2933 19.673 21.4846C19.8643 21.6758 20.1236 21.7832 20.3941 21.7832H28.5517C28.8221 21.7832 29.0815 21.6758 29.2727 21.4846C29.464 21.2933 29.5714 21.034 29.5714 20.7635C29.5714 20.4931 29.464 20.2337 29.2727 20.0425C29.0815 19.8513 28.8221 19.7438 28.5517 19.7438H20.3941C20.1236 19.7438 19.8643 19.8513 19.673 20.0425C19.4818 20.2337 19.3744 20.4931 19.3744 20.7635Z" fill="#EB6374"/>
<path d="M24.4729 24.8423C24.4729 24.5719 24.3655 24.3125 24.1743 24.1213C23.983 23.9301 23.7237 23.8226 23.4532 23.8226H15.2956C15.0251 23.8226 14.7658 23.9301 14.5745 24.1213C14.3833 24.3125 14.2759 24.5719 14.2759 24.8423C14.2759 25.1128 14.3833 25.3721 14.5745 25.5634C14.7658 25.7546 15.0251 25.862 15.2956 25.862H23.4532C23.7237 25.862 23.983 25.7546 24.1743 25.5634C24.3655 25.3721 24.4729 25.1128 24.4729 24.8423ZM15.2956 27.9014C15.0251 27.9014 14.7658 28.0089 14.5745 28.2001C14.3833 28.3913 14.2759 28.6507 14.2759 28.9212C14.2759 29.1916 14.3833 29.451 14.5745 29.6422C14.7658 29.8334 15.0251 29.9409 15.2956 29.9409H20.3941C20.6645 29.9409 20.9239 29.8334 21.1151 29.6422C21.3064 29.451 21.4138 29.1916 21.4138 28.9212C21.4138 28.6507 21.3064 28.3913 21.1151 28.2001C20.9239 28.0089 20.6645 27.9014 20.3941 27.9014H15.2956Z" fill="#E5BB33"/>
<path d="M40.7882 29.9409H43.8473C44.1178 29.9409 44.3771 29.8335 44.5684 29.6422C44.7596 29.451 44.867 29.1916 44.867 28.9212C44.867 28.6508 44.7596 28.3914 44.5684 28.2002C44.3771 28.0089 44.1178 27.9015 43.8473 27.9015H40.7882C40.5178 27.9015 40.2584 28.0089 40.0672 28.2002C39.8759 28.3914 39.7685 28.6508 39.7685 28.9212C39.7685 29.1916 39.8759 29.451 40.0672 29.6422C40.2584 29.8335 40.5178 29.9409 40.7882 29.9409Z" fill="#82ECFF"/>
<path d="M23.4532 28.9212C23.4532 29.1916 23.5606 29.451 23.7519 29.6422C23.9431 29.8335 24.2025 29.9409 24.4729 29.9409H36.7094C36.9798 29.9409 37.2392 29.8335 37.4304 29.6422C37.6216 29.451 37.7291 29.1916 37.7291 28.9212C37.7291 28.6508 37.6216 28.3914 37.4304 28.2002C37.2392 28.0089 36.9798 27.9015 36.7094 27.9015H24.4729C24.2025 27.9015 23.9431 28.0089 23.7519 28.2002C23.5606 28.3914 23.4532 28.6508 23.4532 28.9212Z" fill="#EB6374"/>
<path d="M17.335 31.9803H15.2956C15.0251 31.9803 14.7658 32.0877 14.5745 32.2789C14.3833 32.4702 14.2759 32.7295 14.2759 33C14.2759 33.2704 14.3833 33.5298 14.5745 33.721C14.7658 33.9123 15.0251 34.0197 15.2956 34.0197H17.335C17.6054 34.0197 17.8648 33.9123 18.056 33.721C18.2473 33.5298 18.3547 33.2704 18.3547 33C18.3547 32.7295 18.2473 32.4702 18.056 32.2789C17.8648 32.0877 17.6054 31.9803 17.335 31.9803Z" fill="#E5BB33"/>
<path d="M43.8473 31.9803H32.6305C32.3601 31.9803 32.1007 32.0877 31.9095 32.2789C31.7183 32.4702 31.6108 32.7295 31.6108 33C31.6108 33.2704 31.7183 33.5298 31.9095 33.721C32.1007 33.9123 32.3601 34.0197 32.6305 34.0197H43.8473C44.1177 34.0197 44.3771 33.9123 44.5683 33.721C44.7596 33.5298 44.867 33.2704 44.867 33C44.867 32.7295 44.7596 32.4702 44.5683 32.2789C44.3771 32.0877 44.1177 31.9803 43.8473 31.9803Z" fill="#82ECFF"/>
<path d="M28.5517 31.9803H21.4138C21.1433 31.9803 20.884 32.0877 20.6927 32.2789C20.5015 32.4702 20.3941 32.7295 20.3941 33C20.3941 33.2704 20.5015 33.5298 20.6927 33.721C20.884 33.9123 21.1433 34.0197 21.4138 34.0197H28.5517C28.8222 34.0197 29.0815 33.9123 29.2727 33.721C29.464 33.5298 29.5714 33.2704 29.5714 33C29.5714 32.7295 29.464 32.4702 29.2727 32.2789C29.0815 32.0877 28.8222 31.9803 28.5517 31.9803Z" fill="#EB6374"/>
</svg>
